<svg width="245" height="99" viewBox="0 0 245 99" fill="none" xmlns="http://www.w3.org/2000/svg">
<path d="M18.0938 73.9375C16.0312 73.9375 14.2031 73.4375 12.6094 72.4375C11.0156 73.4375 9.53125 73.9375 8.15625 73.9375C6.8125 73.9375 5.70312 73.8125 4.82812 73.5625C3.95312 73.3438 3.1875 73.0312 2.53125 72.625C1.1875 71.8125 0.515625 70.7969 0.515625 69.5781C0.515625 68.9531 0.6875 68.4062 1.03125 67.9375C1.71875 68.4688 2.59375 68.7344 3.65625 68.7344C6.4375 68.7344 8.35938 67.5469 9.42188 65.1719V42.25C9.42188 40.8125 9.125 39.75 8.53125 39.0625C7.59375 37.9062 5.98438 36.7656 3.70312 35.6406C5.82812 34.6719 7.20312 33.8125 7.82812 33.0625C8.89062 31.8438 9.42188 30.4688 9.42188 28.9375V9.15625C8.35938 6.75 6.4375 5.54688 3.65625 5.54688C2.59375 5.54688 1.71875 5.8125 1.03125 6.34375C0.6875 5.875 0.515625 5.34375 0.515625 4.75C0.515625 4.125 0.6875 3.54687 1.03125 3.01562C1.40625 2.48438 1.90625 2.03125 2.53125 1.65625C3.96875 0.78125 5.60938 0.34375 7.45312 0.34375C9.32812 0.34375 11.0469 0.859375 12.6094 1.89062C14.2344 0.859375 16.0469 0.34375 18.0469 0.34375C20.0469 0.34375 21.8594 0.859375 23.4844 1.89062C25.2344 0.859375 26.8281 0.34375 28.2656 0.34375C29.7031 0.34375 30.8594 0.46875 31.7344 0.71875C32.6094 0.9375 33.375 1.25 34.0312 1.65625C35.375 2.46875 36.0469 3.48438 36.0469 4.70312C36.0469 5.32812 35.875 5.875 35.5312 6.34375C34.8438 5.8125 33.9219 5.54688 32.7656 5.54688C31.6094 5.54688 30.4375 5.85938 29.25 6.48438C28.0938 7.07813 27.2344 7.98438 26.6719 9.20312V28.9375C26.6719 30.4688 27 31.6094 27.6562 32.3594C28.6875 33.5781 30.2656 34.6719 32.3906 35.6406C30.1094 36.7656 28.6562 37.6875 28.0312 38.4062C27.125 39.5312 26.6719 40.8125 26.6719 42.25V62.7344C28.7344 66.0156 31.3125 67.6562 34.4062 67.6562C42.0625 67.6562 46.9844 64.4062 49.1719 57.9062C50.1406 55.0312 50.625 52.4062 50.625 50.0312C50.625 47.625 50.2969 46.0156 49.6406 45.2031C50.3594 44.6094 51.0938 44.3125 51.8438 44.3125C52.625 44.3125 53.3438 44.4688 54 44.7812C54.6562 45.0938 55.25 45.5625 55.7812 46.1875C56.875 47.4688 57.4219 48.9844 57.4219 50.7344C57.4219 52.4844 57.2812 53.8281 57 54.7656C58.4375 55.9531 59.1562 57.625 59.1562 59.7812C59.1562 61.9375 58.5469 63.6875 57.3281 65.0312C58.3594 66.3438 58.875 67.5312 58.875 68.5938C58.875 69.6562 58.7188 70.5781 58.4062 71.3594C58.125 72.1094 57.7188 72.7812 57.1875 73.375C56 74.5938 54.5781 75.2031 52.9219 75.2031C52.1094 75.2031 51.3594 75.0312 50.6719 74.6875C50.7969 74 50.8594 73.3125 50.8594 72.625C50.8594 71.1875 50.2031 70.4688 48.8906 70.4688C47.9219 70.4688 46.5781 70.8594 44.8594 71.6406C41.5469 73.1719 37.7656 73.9375 33.5156 73.9375C29.2969 73.9375 26 73.3906 23.625 72.2969C22 73.3906 20.1562 73.9375 18.0938 73.9375ZM13.9219 60.5781C15.4844 59.9844 16.3438 57.9375 16.5 54.4375C16.6875 50.9375 16.7812 46.0938 16.7812 39.9062C16.7812 33.7188 16.7656 29.6094 16.7344 27.5781C16.7344 25.5156 16.7188 23.8594 16.6875 22.6094C16.5938 18.9219 16.2344 16.7031 15.6094 15.9531C15.0156 15.1719 14.4531 14.6562 13.9219 14.4062C13.9219 25.2812 13.7344 31.4688 13.3594 32.9688C12.9219 34.2188 11.8594 35.1094 10.1719 35.6406C12.0469 36.2969 13.1094 37.0938 13.3594 38.0312C13.7344 39.5312 13.9219 45.0156 13.9219 54.4844V60.5781ZM75.2812 67.75C73.3125 65.75 71.75 63.375 70.5938 60.625C69.4688 57.875 68.7812 55.5156 68.5312 53.5469C68.2812 51.5781 68.0625 50.3125 67.875 49.75C67.7188 49.1875 67.4375 48.6562 67.0312 48.1562C66.2188 47.125 64.7344 46.0781 62.5781 45.0156C65.2969 43.7969 67.0312 41.8438 67.7812 39.1562C68 38.4062 68.1719 37.6562 68.2969 36.9062C69.1094 31.3125 71.8125 26.6406 76.4062 22.8906C81 19.1094 86.3594 17.2188 92.4844 17.2188C98.8594 17.2188 104.344 19.125 108.938 22.9375C113.406 26.6562 116.047 31.3125 116.859 36.9062C117.141 38.875 117.562 40.3125 118.125 41.2188C119.188 42.875 120.672 44.1406 122.578 45.0156C120.453 46.0469 119.078 46.9531 118.453 47.7344C117.609 48.8281 117.078 50.125 116.859 51.625C115.859 59 113.297 64.6094 109.172 68.4531C105.047 72.2656 99.5469 74.1719 92.6719 74.1719C85.2969 74.1719 79.5 72.0312 75.2812 67.75ZM100.547 35.5469C100.547 27.7344 97.8906 23.8281 92.5781 23.8281C87.2656 23.8281 84.6094 27.7344 84.6094 35.5469V56.3125C84.6094 63.8125 87.25 67.5625 92.5312 67.5625C97.875 67.5625 100.547 63.8125 100.547 56.3125V35.5469ZM105.047 60.5781C106.609 59.9844 107.469 57.9375 107.625 54.4375C107.812 50.9375 107.906 48.3438 107.906 46.6562C107.906 44.9375 107.891 43.5156 107.859 42.3906C107.859 41.2344 107.844 40.0469 107.812 38.8281C107.688 34.2656 107.328 31.6094 106.734 30.8594C106.141 30.1094 105.578 29.6094 105.047 29.3594V60.5781ZM76.9688 60.5781C77.4062 60.2344 77.625 59.8438 77.625 59.4062C77.625 58.7188 77.4844 57.8438 77.2031 56.7812C75.9219 51.875 75.2812 48.4688 75.2812 46.5625C75.2812 44.625 75.3438 43.125 75.4688 42.0625C75.5938 40.9688 75.75 39.875 75.9375 38.7812C76.3438 36.6562 76.7656 34.7812 77.2031 33.1562C77.4844 32.0938 77.625 31.375 77.625 31C77.625 30.25 77.4062 29.7031 76.9688 29.3594C75.6562 30.9219 74.6562 33.0156 73.9688 35.6406C73.2812 38.2656 72.7188 40.5781 72.2812 42.5781C72.125 43.4219 71.2031 44.2344 69.5156 45.0156C71.2031 45.7969 72.125 46.5781 72.2812 47.3594C73.4375 52.6406 74.3906 56 75.1406 57.4375C75.8906 58.875 76.5 59.9219 76.9688 60.5781ZM135 74.8281C132.75 72.7656 131.625 70.2031 131.625 67.1406C131.625 62.5781 134.328 58.8281 139.734 55.8906C136.203 53.4219 133.625 49.5156 132 44.1719C131.469 42.5156 130.938 41.3906 130.406 40.7969C129.625 39.8594 128.281 38.9219 126.375 37.9844C127.938 37.2656 129.125 36.3438 129.938 35.2188C130.781 34.0938 131.5 32.625 132.094 30.8125C132.719 29 133.578 27.2656 134.672 25.6094C135.797 23.9531 137.234 22.5 138.984 21.25C142.828 18.5625 147.781 17.2188 153.844 17.2188C155.781 17.2188 157.797 17.4219 159.891 17.8281C160.328 14.4219 161.844 11.5312 164.438 9.15625C167 6.75 170 5.54688 173.438 5.54688C177.469 5.54688 180.859 6.59375 183.609 8.6875C185.109 9.8125 186.609 10.2344 188.109 9.95312C188.234 12.4531 187.266 14.0625 185.203 14.7812C184.859 19 183.031 21.1094 179.719 21.1094C178.406 21.1094 177.609 21.0156 177.328 20.8281C177.797 20.4219 178.031 19.9062 178.031 19.2812C178.031 18.625 177.766 18.0625 177.234 17.5938C176.578 18.8125 175.109 19.4219 172.828 19.4219C171.578 19.4219 170.594 18.8281 169.875 17.6406C171.062 17.2656 172 16.7031 172.688 15.9531C173.375 15.1719 173.719 14.4531 173.719 13.7969C173.719 12.0781 172.812 11.2188 171 11.2188C167.5 11.2188 165.453 13.9375 164.859 19.375C170.547 21.8125 174.172 25.6406 175.734 30.8594C176.766 34.3906 178.672 36.7656 181.453 37.9844C179.016 39.2031 177.406 40.5625 176.625 42.0625C176.312 42.6562 176.031 43.3594 175.781 44.1719C174.094 49.4844 171.453 53.4062 167.859 55.9375C164.266 58.4375 159.641 59.6875 153.984 59.6875C150.391 59.6875 147.266 59.25 144.609 58.375C143.578 59.0312 143.062 59.7656 143.062 60.5781C143.062 61.3594 143.219 62.0312 143.531 62.5938C143.844 63.125 144.406 63.6094 145.219 64.0469C146.812 64.8906 149.844 65.6406 154.312 66.2969C156.344 66.7031 158.438 65.3906 160.594 62.3594C160.719 63.9531 161.078 65.1562 161.672 65.9688C162.266 66.75 162.922 67.1875 163.641 67.2812C172.266 68.5625 177.844 71.375 180.375 75.7188C181.25 77.1875 181.688 79.0625 181.688 81.3438C181.688 83.6562 180.953 85.8906 179.484 88.0469C178.016 90.2344 176.031 92.0938 173.531 93.625C168.344 96.75 161.969 98.3125 154.406 98.3125C145.531 98.3125 138.75 96.8594 134.062 93.9531C130.031 91.4219 128.016 88.1875 128.016 84.25C128.016 81.625 129.344 79.1406 132 76.7969C132.875 76.0469 133.875 75.3906 135 74.8281ZM149.438 51.1562C150.125 52.125 150.812 52.75 151.5 53.0312C152.188 53.2812 152.984 53.4062 153.891 53.4062C154.828 53.4062 155.641 53.2812 156.328 53.0312C157.016 52.75 157.594 52.2812 158.062 51.625C158.969 50.3438 159.422 48.1875 159.422 45.1562V32.1719C159.422 29.1406 159.078 27.1406 158.391 26.1719C157.703 25.2031 157.016 24.5938 156.328 24.3438C155.641 24.0625 154.828 23.9219 153.891 23.9219C152.984 23.9219 152.188 24.0625 151.5 24.3438C150.812 24.5938 150.25 25.0312 149.812 25.6562C148.875 26.9688 148.406 29.1406 148.406 32.1719V45.1562C148.406 48.1875 148.75 50.1875 149.438 51.1562ZM163.969 50.8281C165.406 50.3281 166.234 48.7812 166.453 46.1875C166.672 43.75 166.781 41.0156 166.781 37.9844C166.781 33.2969 166.656 30.2969 166.406 28.9844C166.031 27.2344 165.219 26.0938 163.969 25.5625V50.8281ZM139.547 50.8281C140.172 50.3594 140.484 49.8125 140.484 49.1875C140.484 48.375 140.375 47.5938 140.156 46.8438C139.312 43.9688 138.891 41.0156 138.891 37.9844C138.891 34.9844 139.312 32.0469 140.156 29.1719C140.375 28.4219 140.484 27.8281 140.484 27.3906V26.2656C140.484 25.9844 140.359 25.75 140.109 25.5625C138.828 27.125 137.891 28.9062 137.297 30.9062C136.734 32.9062 136.281 34.6719 135.938 36.2031C135.812 36.6719 134.938 37.2656 133.312 37.9844C134.969 38.7969 135.844 39.4062 135.938 39.8125L136.875 43.75C137.688 47.0625 138.578 49.4219 139.547 50.8281ZM137.156 67.5156C136.875 67.7969 136.734 68.2031 136.734 68.7344C136.859 72.1094 141.672 74.6562 151.172 76.375C152.266 76.625 153.047 77.8125 153.516 79.9375C153.672 79.25 154.281 78.6719 155.344 78.2031C156.438 77.7656 157.172 77.5625 157.547 77.5938C162.266 78.1562 165.453 78.6875 167.109 79.1875C170.047 80.0938 172.188 81.4375 173.531 83.2188C173.906 82.7812 174.094 82.2188 174.094 81.5312C174.094 80.8438 173.75 80.1406 173.062 79.4219C172.375 78.7344 171.25 78.125 169.688 77.5938C167 76.625 163.359 75.875 158.766 75.3438C154.172 74.8125 150.938 74.3438 149.062 73.9375C147.219 73.5312 145.516 73.0312 143.953 72.4375C140.547 71.0938 138.281 69.4531 137.156 67.5156ZM139.688 77.8281C137.469 78.7969 136.359 80.6094 136.359 83.2656C136.359 85.3906 137.969 87.3125 141.188 89.0312C144.781 90.9688 149.422 91.9375 155.109 91.9375C162.109 91.9375 166.656 90.7344 168.75 88.3281C169.344 87.6719 169.641 86.9688 169.641 86.2188C169.641 85.5 169.281 84.8594 168.562 84.2969C167.875 83.7344 166.969 83.2812 165.844 82.9375C164.188 82.375 161.578 81.8906 158.016 81.4844C156.297 81.2969 154.172 82.5625 151.641 85.2812C151.641 83.5312 151.344 82.2656 150.75 81.4844C150.188 80.7031 149.625 80.2812 149.062 80.2188C145.438 79.75 142.312 78.9531 139.688 77.8281ZM197.25 67.75C195.281 65.75 193.719 63.375 192.562 60.625C191.438 57.875 190.75 55.5156 190.5 53.5469C190.25 51.5781 190.031 50.3125 189.844 49.75C189.688 49.1875 189.406 48.6562 189 48.1562C188.188 47.125 186.703 46.0781 184.547 45.0156C187.266 43.7969 189 41.8438 189.75 39.1562C189.969 38.4062 190.141 37.6562 190.266 36.9062C191.078 31.3125 193.781 26.6406 198.375 22.8906C202.969 19.1094 208.328 17.2188 214.453 17.2188C220.828 17.2188 226.312 19.125 230.906 22.9375C235.375 26.6562 238.016 31.3125 238.828 36.9062C239.109 38.875 239.531 40.3125 240.094 41.2188C241.156 42.875 242.641 44.1406 244.547 45.0156C242.422 46.0469 241.047 46.9531 240.422 47.7344C239.578 48.8281 239.047 50.125 238.828 51.625C237.828 59 235.266 64.6094 231.141 68.4531C227.016 72.2656 221.516 74.1719 214.641 74.1719C207.266 74.1719 201.469 72.0312 197.25 67.75ZM222.516 35.5469C222.516 27.7344 219.859 23.8281 214.547 23.8281C209.234 23.8281 206.578 27.7344 206.578 35.5469V56.3125C206.578 63.8125 209.219 67.5625 214.5 67.5625C219.844 67.5625 222.516 63.8125 222.516 56.3125V35.5469ZM227.016 60.5781C228.578 59.9844 229.438 57.9375 229.594 54.4375C229.781 50.9375 229.875 48.3438 229.875 46.6562C229.875 44.9375 229.859 43.5156 229.828 42.3906C229.828 41.2344 229.812 40.0469 229.781 38.8281C229.656 34.2656 229.297 31.6094 228.703 30.8594C228.109 30.1094 227.547 29.6094 227.016 29.3594V60.5781ZM198.938 60.5781C199.375 60.2344 199.594 59.8438 199.594 59.4062C199.594 58.7188 199.453 57.8438 199.172 56.7812C197.891 51.875 197.25 48.4688 197.25 46.5625C197.25 44.625 197.312 43.125 197.438 42.0625C197.562 40.9688 197.719 39.875 197.906 38.7812C198.312 36.6562 198.734 34.7812 199.172 33.1562C199.453 32.0938 199.594 31.375 199.594 31C199.594 30.25 199.375 29.7031 198.938 29.3594C197.625 30.9219 196.625 33.0156 195.938 35.6406C195.25 38.2656 194.688 40.5781 194.25 42.5781C194.094 43.4219 193.172 44.2344 191.484 45.0156C193.172 45.7969 194.094 46.5781 194.25 47.3594C195.406 52.6406 196.359 56 197.109 57.4375C197.859 58.875 198.469 59.9219 198.938 60.5781Z" fill="black"/>
</svg>
